<svg width="841" height="599" viewBox="0 0 841 599" fill="none" xmlns="http://www.w3.org/2000/svg">
<path d="M598.5 108.001C595.5 110.5 565 134.501 547 142.001C529.455 135.42 468.39 112.837 447.339 105.406C472.294 96.1428 494.521 87.8927 517.829 79.5896C525.5 81.5 601.782 105.266 598.5 108.001Z" fill="#B34A13"/>
<path d="M513.5 291C530.565 265.344 548.653 239.596 566.61 214.702C568.923 211.494 572.692 210.874 576.462 210.169C589.076 207.811 601.813 205.854 614.256 202.918C627.023 199.906 629 199.5 629 199.5C628.741 203.091 632.64 216.218 630.695 219C617.122 238.518 596.912 261.203 580.5 279C563.111 283.506 531.165 300.411 513.5 291Z" fill="#984113"/>
<path d="M598.477 106.659C571.953 99.8942 546.364 89.9754 519.772 79.9545C530.224 75.205 541.338 70.3784 552.904 66.6658C580.927 57.671 589.519 86.3531 598.477 106.659Z" fill="#E5793C"/>
<path d="M397.658 127.212C407.5 129.5 474.5 150.5 498.863 159.315C475.673 167.708 437.831 181.657 430.331 183.157C423.311 184.561 389.108 170.03 376.331 165.157C384.468 152.469 389.831 140.657 397.658 127.212Z" fill="#C45E15"/>
<path d="M513.655 224.362C496.021 248.166 485.5 274.5 471.238 298.577C436.5 305.5 409.891 310.338 385 313.5C400.208 292.272 416 260.5 436.5 235C460.901 232.009 489 229.5 513.655 224.362Z" fill="url(#paint0_linear_23_205)"/>
<path d="M398 127.5C395 131 384.526 152.479 376.5 165C365.375 162.036 341.884 155.4 325.852 149.818C338.495 144.673 354.5 140.5 398 127.5Z" fill="#E0824E"/>
<path d="M282 164C292.5 170.5 348.912 194.917 375.352 203.348C361.762 210.399 322.932 225.683 308 229C291.5 222 223 198.5 211.401 193.741C227 187 270 168.5 282 164Z" fill="url(#paint1_linear_23_205)"/>
<path d="M122.5 224C158.972 210.513 219.188 235.476 255.646 247.85C245.969 251.679 164.272 277.715 164.111 283.445C203 279 222 275.5 252 270C244.5 287.5 228.81 308.636 211.5 347C183 353 156 356.5 156 356.5C149.941 335.92 123.972 231.513 122.5 224Z" fill="url(#paint2_linear_23_205)"/>
<path d="M385.04 313.167C366.839 341.197 318.5 407.5 280.5 503C262 520.5 257.281 516.545 223.5 578C173.281 588.045 204.5 566 156 356.5C223.5 345.5 312.644 328.675 385.04 313.167Z" fill="url(#paint3_linear_23_205)"/>
<path d="M631 218.5C634.775 231.851 634.064 230.061 637 243.5C659.448 375 308.787 482.5 277.287 506C307.195 434.481 365.669 319.11 385 313.5C390.827 312.61 539.107 287.593 579.937 279.129C594.665 257.92 613.194 234.44 631 218.5Z" fill="url(#paint4_linear_23_205)"/>
<path fill-rule="evenodd" clip-rule="evenodd" d="M387.041 244.472C375.5 262.5 338.5 313 328.905 324.31C307.021 331.5 279.288 336.147 259.5 338C273.273 313.016 314.089 257.144 320 256C335.5 253 366.413 248.399 387.041 244.472Z" fill="url(#paint5_linear_23_205)"/>
<path fill-rule="evenodd" clip-rule="evenodd" d="M636.774 243.438C660.313 317.443 679.772 403.179 689.876 477.172C691.018 485.538 685.363 492.533 675.403 496.674C523.782 523.317 377.17 561.329 223.142 578.2C285.5 425 498.863 466.5 614.5 307.5C624.329 293.985 635.836 258.305 636.774 243.438Z" fill="url(#paint6_linear_23_205)"/>
<defs>
<linearGradient id="paint0_linear_23_205" x1="401" y1="300" x2="500.5" y2="236" gradientUnits="userSpaceOnUse">
<stop stop-color="#B34915"/>
<stop offset="1" stop-color="#984113"/>
</linearGradient>
<linearGradient id="paint1_linear_23_205" x1="237" y1="173" x2="352" y2="211.5" gradientUnits="userSpaceOnUse">
<stop stop-color="#CFAE7F"/>
<stop offset="1" stop-color="#DB8A5F"/>
</linearGradient>
<linearGradient id="paint2_linear_23_205" x1="130" y1="318.5" x2="238" y2="283" gradientUnits="userSpaceOnUse">
<stop stop-color="#DBBF90"/>
<stop offset="1" stop-color="#CFAF7F"/>
</linearGradient>
<linearGradient id="paint3_linear_23_205" x1="206.5" y1="555" x2="357" y2="330.5" gradientUnits="userSpaceOnUse">
<stop stop-color="#E9D0A5"/>
<stop offset="0.475962" stop-color="#E7A67C"/>
<stop offset="1" stop-color="#DE834E"/>
</linearGradient>
<linearGradient id="paint4_linear_23_205" x1="318.5" y1="466.5" x2="627.5" y2="256.5" gradientUnits="userSpaceOnUse">
<stop stop-color="#DB8565"/>
<stop offset="0.559445" stop-color="#E89340"/>
<stop offset="1" stop-color="#E6A53C"/>
</linearGradient>
<linearGradient id="paint5_linear_23_205" x1="276" y1="329" x2="410.5" y2="244" gradientUnits="userSpaceOnUse">
<stop stop-color="#DBBE89"/>
<stop offset="1" stop-color="#B14A15"/>
</linearGradient>
<linearGradient id="paint6_linear_23_205" x1="512" y1="244" x2="626" y2="578" gradientUnits="userSpaceOnUse">
<stop offset="0.1875" stop-color="#D6B888"/>
<stop offset="0.523946" stop-color="#EAA951"/>
<stop offset="0.879808" stop-color="#E67F4F"/>
</linearGradient>
</defs>
</svg>
