<svg width="487" height="94" viewBox="0 0 487 94" fill="none" xmlns="http://www.w3.org/2000/svg">
<path d="M85.6178 7.66178C85.0769 8.07504 79.5778 12.0435 76.3324 13.2836C73.1691 12.1956 62.1591 8.46139 58.3636 7.23269C62.8631 5.70112 66.8706 4.337 71.0729 2.9641C72.456 3.27998 86.2096 7.20964 85.6178 7.66178Z" fill="#B34A13"/>
<path d="M70.3636 37.807C73.4073 33.5958 76.6335 29.3697 79.8362 25.2835C80.2488 24.7571 80.921 24.6552 81.5934 24.5396C83.8433 24.1526 86.115 23.8313 88.3344 23.3494C90.6113 22.855 90.964 22.7884 90.964 22.7884C90.9178 23.3779 91.6132 25.5324 91.2663 25.9891C88.8455 29.1927 85.2409 32.9162 82.3136 35.8373C79.2122 36.577 73.5144 39.3517 70.3636 37.807Z" fill="#984113"/>
<path d="M85.6364 7.30914C80.8571 6.20752 76.2462 4.59236 71.4545 2.96057C73.3379 2.18717 75.3405 1.40122 77.4247 0.796657C82.474 -0.668036 84.0223 4.00252 85.6364 7.30914Z" fill="#E5793C"/>
<path d="M49.3905 10.8395C51.1648 11.2165 63.244 14.6765 67.6364 16.1289C63.4555 17.5116 56.6331 19.8099 55.2809 20.0571C54.0153 20.2884 47.849 17.8942 45.5455 17.0914C47.0124 15.0009 47.9793 13.0548 49.3905 10.8395Z" fill="#C45E15"/>
<path d="M70.3636 26.8619C67.1862 30.7779 65.2905 35.1103 62.7207 39.0713C56.4614 40.2103 51.6668 41.0062 47.1818 41.5264C49.9222 38.0341 52.7676 32.8071 56.4614 28.6119C60.8582 28.1198 65.9211 27.7071 70.3636 26.8619Z" fill="url(#paint0_linear_24_15)"/>
<path d="M49.3636 10.8395C48.8306 11.4225 46.9698 15 45.5439 17.0855C43.5673 16.5919 39.3938 15.4865 36.5455 14.5568C38.7917 13.6998 41.6353 13.0048 49.3636 10.8395Z" fill="#E0824E"/>
<path d="M28.5016 16.8139C30.388 17.9002 40.5227 21.9807 45.2727 23.3897C42.8311 24.568 35.8553 27.1223 33.1726 27.6766C30.2083 26.5067 17.902 22.5795 15.8182 21.7842C18.6206 20.6576 26.3457 17.566 28.5016 16.8139Z" fill="url(#paint1_linear_24_15)"/>
<path d="M0 26.6895C6.49957 24.4606 17.2304 28.5862 23.7273 30.6311C22.0028 31.2638 7.44394 35.5668 7.41523 36.5137C14.3455 35.7791 17.7314 35.2007 23.0776 34.2917C21.741 37.1838 18.945 40.6768 15.8603 47.0171C10.7814 48.0087 5.96988 48.5871 5.96988 48.5871C4.89014 45.186 0.262392 27.9312 0 26.6895Z" fill="url(#paint2_linear_24_15)"/>
<path d="M47.1818 41.5264C43.9093 46.1484 35.2178 57.0816 28.3854 72.8293C25.059 75.715 24.2106 75.0628 18.1367 85.1965C9.10728 86.8529 14.7204 83.2178 6 48.6719C18.1366 46.858 34.1649 44.0836 47.1818 41.5264Z" fill="url(#paint3_linear_24_15)"/>
<path d="M91.4619 25.7756C92.1412 27.9825 92.0133 27.6866 92.5415 29.9081C96.5805 51.6452 33.486 69.415 27.8182 73.2996C33.1995 61.4774 43.7209 42.4066 47.1991 41.4792C48.2475 41.3321 74.9276 37.1968 82.274 35.7976C84.9242 32.2917 88.2581 28.4105 91.4619 25.7756Z" fill="url(#paint4_linear_24_15)"/>
<path fill-rule="evenodd" clip-rule="evenodd" d="M47.4545 30.1206C45.3815 33.1044 38.7355 41.4623 37.0121 43.3341C33.0813 44.5241 28.0998 45.2932 24.5455 45.5999C27.0194 41.4649 34.3508 32.218 35.4125 32.0286C38.1967 31.5321 43.7493 30.7706 47.4545 30.1206Z" fill="url(#paint5_linear_24_15)"/>
<path fill-rule="evenodd" clip-rule="evenodd" d="M92.4199 29.8491C96.6549 42.0961 100.156 56.2844 101.974 68.5294C102.179 69.9139 101.162 71.0715 99.3699 71.7567C72.0905 76.1659 45.7125 82.4564 18 85.2484C29.2194 59.8955 67.6072 66.7633 88.4123 40.4506C90.1807 38.214 92.251 32.3093 92.4199 29.8491Z" fill="url(#paint6_linear_24_15)"/>
<path d="M170.208 21.408C171.872 21.408 173.184 21.92 174.144 22.944C175.136 23.936 175.632 25.264 175.632 26.928C175.632 29.008 174.96 30.768 173.616 32.208C172.272 33.616 170.608 34.32 168.624 34.32C167.504 34.32 166.496 34.224 165.6 34.032C164.704 33.808 163.808 33.584 162.912 33.36C162.016 33.136 160.992 33.024 159.84 33.024C158.912 33.024 158.048 33.152 157.248 33.408C156.48 33.664 155.728 34.032 154.992 34.512C154.288 34.992 153.568 35.616 152.832 36.384L152.784 34.176C155.376 31.296 157.552 29.008 159.312 27.312C161.104 25.616 162.624 24.352 163.872 23.52C165.152 22.656 166.272 22.096 167.232 21.84C168.224 21.552 169.216 21.408 170.208 21.408ZM154.08 68.544L160.752 70.08V71.52H134.4V70.08L140.112 68.544V32.832C139.696 32.448 139.232 32.048 138.72 31.632C138.208 31.216 137.568 30.672 136.8 30C136.032 29.328 135.056 28.464 133.872 27.408V26.208L153.456 20.88H154.08V68.544Z" fill="#E9D0A5"/>
<path d="M212.332 40.08L212.428 42.384C209.068 43.536 206.332 44.64 204.22 45.696C202.14 46.752 200.54 47.84 199.42 48.96C198.332 50.048 197.58 51.232 197.164 52.512C196.748 53.76 196.54 55.152 196.54 56.688C196.54 59.344 197.148 61.296 198.364 62.544C199.612 63.792 201.18 64.416 203.068 64.416C204.412 64.416 205.58 64.144 206.572 63.6C207.596 63.056 208.38 62.24 208.924 61.152C209.5 60.032 209.788 58.624 209.788 56.928V34.368C209.788 31.552 209.052 29.376 207.58 27.84C206.108 26.304 203.884 25.536 200.908 25.536C199.404 25.536 197.98 25.632 196.636 25.824C195.324 25.984 194.252 26.224 193.42 26.544L195.58 24C195.388 25.856 195.18 27.472 194.956 28.848C194.732 30.224 194.46 31.392 194.14 32.352C193.852 33.28 193.516 34 193.132 34.512C192.62 35.152 191.884 35.68 190.924 36.096C189.964 36.48 188.908 36.672 187.756 36.672C186.284 36.672 185.164 36.416 184.396 35.904C183.628 35.36 183.244 34.592 183.244 33.6C183.244 32.192 183.948 30.768 185.356 29.328C186.764 27.888 188.62 26.56 190.924 25.344C193.228 24.096 195.772 23.104 198.556 22.368C201.372 21.6 204.188 21.216 207.004 21.216C211.068 21.216 214.316 21.808 216.748 22.992C219.212 24.144 220.988 25.808 222.076 27.984C223.196 30.128 223.756 32.656 223.756 35.568V62.304C223.756 63.2 223.9 63.936 224.188 64.512C224.476 65.056 224.876 65.456 225.388 65.712C225.932 65.968 226.556 66.096 227.26 66.096C228.156 66.096 229.036 65.968 229.9 65.712C230.796 65.456 231.708 65.04 232.636 64.464V66.48C230.204 68.976 227.964 70.64 225.916 71.472C223.868 72.272 221.612 72.672 219.148 72.672C216.876 72.672 215.068 72.224 213.724 71.328C212.38 70.432 211.404 69.088 210.796 67.296C210.188 65.472 209.836 63.184 209.74 60.432L210.22 60.72C209.612 63.28 208.684 65.44 207.436 67.2C206.188 68.96 204.684 70.304 202.924 71.232C201.164 72.16 199.212 72.624 197.068 72.624C192.652 72.624 189.164 71.52 186.604 69.312C184.076 67.072 182.812 63.968 182.812 60C182.812 57.984 183.164 56.176 183.868 54.576C184.572 52.976 185.932 51.456 187.948 50.016C189.964 48.576 192.924 47.072 196.828 45.504C200.764 43.904 205.932 42.096 212.332 40.08Z" fill="#E9D0A5"/>
<path d="M258.178 57.552C258.178 59.76 258.85 61.408 260.194 62.496C261.57 63.584 263.538 64.128 266.098 64.128C267.538 64.128 269.058 64.016 270.658 63.792C272.258 63.568 274.146 63.168 276.322 62.592V64.464C273.058 66.64 270.338 68.32 268.162 69.504C265.986 70.688 264.05 71.52 262.354 72C260.69 72.48 258.994 72.72 257.266 72.72C254.738 72.72 252.482 72.24 250.498 71.28C248.546 70.288 247.01 68.768 245.89 66.72C244.77 64.64 244.21 61.984 244.21 58.752V30.576L237.25 25.44V24.432C237.602 24.208 238.274 23.824 239.266 23.28C240.258 22.704 241.442 22.016 242.818 21.216C244.226 20.416 245.746 19.536 247.378 18.576C249.042 17.616 250.738 16.624 252.466 15.6C254.194 14.576 255.842 13.6 257.41 12.672H258.178V57.552ZM252.946 29.04V22.368H274.69L273.778 29.04H252.946Z" fill="#E9D0A5"/>
<path d="M307.358 21.216C311.166 21.216 314.43 21.984 317.15 23.52C319.87 25.024 322.014 27.232 323.582 30.144C325.15 33.024 326.078 36.544 326.366 40.704H294.11V37.248H319.79L313.55 39.456C313.294 35.68 312.846 32.688 312.206 30.48C311.598 28.24 310.766 26.64 309.71 25.68C308.654 24.688 307.342 24.192 305.774 24.192C303.79 24.192 302.078 24.784 300.638 25.968C299.23 27.152 298.158 29.04 297.422 31.632C296.686 34.224 296.318 37.616 296.318 41.808C296.318 46.896 296.942 51.008 298.19 54.144C299.438 57.28 301.278 59.568 303.71 61.008C306.142 62.416 309.118 63.12 312.638 63.12C314.398 63.12 316.062 62.912 317.63 62.496C319.198 62.08 320.702 61.408 322.142 60.48C323.614 59.552 325.006 58.352 326.318 56.88L327.326 57.696C325.182 61.44 323.022 64.4 320.846 66.576C318.67 68.752 316.382 70.32 313.982 71.28C311.614 72.208 309.006 72.672 306.158 72.672C301.614 72.672 297.582 71.712 294.062 69.792C290.542 67.872 287.79 65.072 285.806 61.392C283.822 57.68 282.83 53.184 282.83 47.904C282.83 43.104 283.774 38.688 285.662 34.656C287.55 30.592 290.318 27.344 293.966 24.912C297.614 22.448 302.078 21.216 307.358 21.216Z" fill="#E9D0A5"/>
<path d="M357.629 68.448L362.716 70.032V71.52H335.788V70.032L340.876 68.448V12.96C340.46 12.608 339.884 12.128 339.148 11.52C338.412 10.912 337.532 10.192 336.508 9.36C335.484 8.528 334.348 7.6 333.1 6.576V5.232L356.716 0H357.629V68.448Z" fill="#DE834E"/>
<path d="M397.841 69.6C399.857 69.6 401.473 68.864 402.689 67.392C403.937 65.92 404.833 63.616 405.377 60.48C405.921 57.312 406.193 53.232 406.193 48.24C406.193 42.928 405.921 38.512 405.377 34.992C404.865 31.44 403.985 28.784 402.737 27.024C401.521 25.232 399.857 24.336 397.745 24.336C395.697 24.336 394.065 25.072 392.849 26.544C391.633 28.016 390.753 30.32 390.209 33.456C389.665 36.592 389.393 40.656 389.393 45.648C389.393 50.928 389.649 55.344 390.161 58.896C390.673 62.448 391.537 65.12 392.753 66.912C394.001 68.704 395.697 69.6 397.841 69.6ZM397.217 72.768C392.257 72.768 387.873 71.68 384.065 69.504C380.257 67.328 377.281 64.32 375.137 60.48C373.025 56.608 371.969 52.16 371.969 47.136C371.969 41.984 373.105 37.456 375.377 33.552C377.681 29.648 380.817 26.608 384.785 24.432C388.785 22.224 393.297 21.12 398.321 21.12C403.409 21.12 407.841 22.208 411.617 24.384C415.393 26.528 418.337 29.536 420.449 33.408C422.561 37.248 423.617 41.696 423.617 46.752C423.617 51.904 422.449 56.448 420.113 60.384C417.777 64.288 414.625 67.328 410.657 69.504C406.689 71.68 402.209 72.768 397.217 72.768Z" fill="#DE834E"/>
<path d="M453.641 93.84C449.481 93.84 445.993 93.6 443.177 93.12C440.361 92.64 438.105 91.968 436.409 91.104C434.713 90.24 433.497 89.216 432.761 88.032C432.025 86.88 431.657 85.632 431.657 84.288C431.657 83.136 432.025 82.064 432.761 81.072C433.497 80.112 434.665 79.232 436.265 78.432C437.897 77.632 440.025 76.896 442.649 76.224C445.305 75.552 448.537 74.928 452.345 74.352H457.145L457.097 74.88C453.417 75.296 450.537 75.84 448.457 76.512C446.377 77.216 444.905 78.064 444.041 79.056C443.209 80.048 442.793 81.2 442.793 82.512C442.793 84.208 443.417 85.664 444.665 86.88C445.945 88.096 447.737 89.024 450.041 89.664C452.377 90.304 455.113 90.624 458.249 90.624C461.513 90.624 464.201 90.288 466.313 89.616C468.425 88.944 469.977 88.032 470.969 86.88C471.993 85.728 472.505 84.432 472.505 82.992C472.505 81.84 472.105 80.88 471.305 80.112C470.505 79.376 469.273 78.768 467.609 78.288C465.945 77.84 463.833 77.456 461.273 77.136C458.745 76.848 455.753 76.592 452.297 76.368C449.129 76.08 446.425 75.616 444.185 74.976C441.945 74.368 440.121 73.536 438.713 72.48C437.337 71.456 436.329 70.24 435.689 68.832C435.049 67.424 434.729 65.824 434.729 64.032C434.729 61.216 436.041 58.752 438.665 56.64C441.321 54.496 445.193 53.104 450.281 52.464L450.857 53.76C448.713 53.92 447.193 54.304 446.297 54.912C445.433 55.52 445.001 56.272 445.001 57.168C445.001 57.904 445.193 58.544 445.577 59.088C445.993 59.6 446.777 60.032 447.929 60.384C449.081 60.736 450.761 61.056 452.969 61.344C455.177 61.6 458.089 61.888 461.705 62.208C465.609 62.528 468.905 63.072 471.593 63.84C474.281 64.576 476.457 65.552 478.121 66.768C479.817 67.984 481.049 69.424 481.817 71.088C482.585 72.72 482.969 74.576 482.969 76.656C482.969 79.696 481.929 82.512 479.849 85.104C477.801 87.728 474.617 89.84 470.297 91.44C465.977 93.04 460.425 93.84 453.641 93.84ZM455.273 54.336C451.049 54.336 447.369 53.664 444.233 52.32C441.129 50.944 438.713 49.024 436.985 46.56C435.257 44.064 434.393 41.136 434.393 37.776C434.393 34.48 435.273 31.584 437.033 29.088C438.793 26.592 441.225 24.64 444.329 23.232C447.433 21.824 451.001 21.12 455.033 21.12C458.233 21.12 461.113 21.52 463.673 22.32C466.265 23.088 468.473 24.192 470.297 25.632C472.121 27.072 473.513 28.816 474.473 30.864C475.465 32.912 475.961 35.2 475.961 37.728C475.961 40.992 475.081 43.872 473.321 46.368C471.593 48.864 469.177 50.816 466.073 52.224C462.969 53.632 459.369 54.336 455.273 54.336ZM456.041 51.504C457.833 51.344 459.113 50.304 459.881 48.384C460.649 46.432 460.937 43.648 460.745 40.032C460.585 34.688 459.961 30.656 458.873 27.936C457.785 25.216 456.249 23.888 454.265 23.952C452.569 24.08 451.321 25.12 450.521 27.072C449.753 29.024 449.449 31.792 449.609 35.376C449.737 40.688 450.361 44.72 451.481 47.472C452.601 50.224 454.121 51.568 456.041 51.504ZM462.041 23.136L459.305 21.408C464.105 21.664 467.977 21.744 470.921 21.648C473.865 21.552 476.153 21.36 477.785 21.072C479.417 20.752 480.665 20.48 481.529 20.256C482.393 20 483.145 19.872 483.785 19.872C484.489 19.872 485.097 20.112 485.609 20.592C486.121 21.04 486.377 21.872 486.377 23.088C486.377 25.104 485.849 26.832 484.793 28.272C483.769 29.712 482.537 30.432 481.097 30.432C480.105 30.432 479.113 30.08 478.121 29.376C477.129 28.672 475.945 27.856 474.569 26.928C473.193 25.968 471.497 25.12 469.481 24.384C467.497 23.648 465.017 23.232 462.041 23.136Z" fill="#DE834E"/>
<defs>
<linearGradient id="paint0_linear_24_15" x1="69.9708" y1="29.942" x2="87.6069" y2="86.1178" gradientUnits="userSpaceOnUse">
<stop stop-color="#B34915"/>
<stop offset="1" stop-color="#984113"/>
</linearGradient>
<linearGradient id="paint1_linear_24_15" x1="69.9708" y1="29.942" x2="87.6069" y2="86.1178" gradientUnits="userSpaceOnUse">
<stop stop-color="#CFAE7F"/>
<stop offset="1" stop-color="#DB8A5F"/>
</linearGradient>
<linearGradient id="paint2_linear_24_15" x1="69.9708" y1="29.942" x2="87.6069" y2="86.1178" gradientUnits="userSpaceOnUse">
<stop stop-color="#DBBF90"/>
<stop offset="1" stop-color="#CFAF7F"/>
</linearGradient>
<linearGradient id="paint3_linear_24_15" x1="69.9708" y1="29.942" x2="87.6069" y2="86.1178" gradientUnits="userSpaceOnUse">
<stop stop-color="#E9D0A5"/>
<stop offset="0.475962" stop-color="#E7A67C"/>
<stop offset="1" stop-color="#DE834E"/>
</linearGradient>
<linearGradient id="paint4_linear_24_15" x1="69.9708" y1="29.942" x2="87.6069" y2="86.1178" gradientUnits="userSpaceOnUse">
<stop stop-color="#DB8565"/>
<stop offset="0.559445" stop-color="#E89340"/>
<stop offset="1" stop-color="#E6A53C"/>
</linearGradient>
<linearGradient id="paint5_linear_24_15" x1="69.9708" y1="29.942" x2="87.6069" y2="86.1178" gradientUnits="userSpaceOnUse">
<stop stop-color="#DBBE89"/>
<stop offset="1" stop-color="#B14A15"/>
</linearGradient>
<linearGradient id="paint6_linear_24_15" x1="69.9708" y1="29.942" x2="87.6069" y2="86.1178" gradientUnits="userSpaceOnUse">
<stop offset="0.1875" stop-color="#D6B888"/>
<stop offset="0.523946" stop-color="#EAA951"/>
<stop offset="0.879808" stop-color="#E67F4F"/>
</linearGradient>
</defs>
</svg>
